<svg width="60" height="60" viewBox="0 0 60 60" fill="none" xmlns="http://www.w3.org/2000/svg">
<circle opacity="0.4" cx="30" cy="30" r="30" transform="matrix(-1 0 0 1 60 0)" fill="#D9D9D9"/>
<path d="M13 28.5C12.1716 28.5 11.5 29.1716 11.5 30C11.5 30.8284 12.1716 31.5 13 31.5V28.5ZM47.0607 31.0607C47.6464 30.4749 47.6464 29.5251 47.0607 28.9393L37.5147 19.3934C36.9289 18.8076 35.9792 18.8076 35.3934 19.3934C34.8076 19.9792 34.8076 20.9289 35.3934 21.5147L43.8787 30L35.3934 38.4853C34.8076 39.0711 34.8076 40.0208 35.3934 40.6066C35.9792 41.1924 36.9289 41.1924 37.5147 40.6066L47.0607 31.0607ZM13 31.5H46V28.5H13V31.5Z" fill="#051923"/>
</svg>
