<svg width="60" height="60" viewBox="0 0 60 60" fill="none" xmlns="http://www.w3.org/2000/svg">
<circle opacity="0.4" cx="30" cy="30" r="30" fill="#D9D9D9"/>
<path d="M47 28.5C47.8284 28.5 48.5 29.1716 48.5 30C48.5 30.8284 47.8284 31.5 47 31.5V28.5ZM12.9393 31.0607C12.3536 30.4749 12.3536 29.5251 12.9393 28.9393L22.4853 19.3934C23.0711 18.8076 24.0208 18.8076 24.6066 19.3934C25.1924 19.9792 25.1924 20.9289 24.6066 21.5147L16.1213 30L24.6066 38.4853C25.1924 39.0711 25.1924 40.0208 24.6066 40.6066C24.0208 41.1924 23.0711 41.1924 22.4853 40.6066L12.9393 31.0607ZM47 31.5H14V28.5H47V31.5Z" fill="#051923"/>
</svg>
